<svg height="512" viewBox="0 0 512 512" width="512" xmlns="http://www.w3.org/2000/svg" xmlns:xlink="http://www.w3.org/1999/xlink"><linearGradient id="a" gradientUnits="userSpaceOnUse" x1="11.14" x2="504.749" y1="483.57" y2="-10.04" data-name="New Gradient Swatch 1"><stop offset="0" stop-color="#003f8a"/><stop offset=".518" stop-color="#00d7df"/><stop offset="1" stop-color="#006df0"/></linearGradient><linearGradient id="b" x1="119.785" x2="613.395" xlink:href="#a" y1="592.215" y2="98.605"/><g><path d="m480.81 179.75a113.007 113.007 0 0 0 -53.98-38.22 176.015 176.015 0 0 0 -346.34 29.37 96.013 96.013 0 0 0 23.51 189.1h112v72a8 8 0 0 0 8 8h64a8 8 0 0 0 8-8v-72h96a112.123 112.123 0 0 0 112-112 110.944 110.944 0 0 0 -23.19-68.25zm-192.81 76.25a8 8 0 0 0 -8 8v160h-48v-160a8 8 0 0 0 -8-8h-30.92l62.92-75.5 62.92 75.5zm104 88h-96v-72h40a8.006 8.006 0 0 0 6.15-13.12l-80-96a8.006 8.006 0 0 0 -12.3 0l-80 96a8.006 8.006 0 0 0 6.15 13.12h40v72h-112a80.007 80.007 0 0 1 -14.43-158.7 8 8 0 0 0 6.56-7.56 160.018 160.018 0 0 1 316.15-28.19 7.969 7.969 0 0 0 5.65 5.99 96.729 96.729 0 0 1 50.2 33.97 95.063 95.063 0 0 1 19.87 58.49 96.115 96.115 0 0 1 -96 96z" fill="url(#a)"/><path d="m352 408h-32a8 8 0 0 0 -8 8v40h-112v-40a8 8 0 0 0 -8-8h-32a8 8 0 0 0 -8 8v80a8 8 0 0 0 8 8h192a8 8 0 0 0 8-8v-80a8 8 0 0 0 -8-8zm-8 80h-176v-64h16v40a8 8 0 0 0 8 8h128a8 8 0 0 0 8-8v-40h16z" fill="url(#b)"/></g></svg>